<svg xmlns="http://www.w3.org/2000/svg" viewBox="0 0 174.37 30.78"><defs><style>.cls-1{fill:#550f84;}.cls-2{fill:#59d0d5;}</style></defs><g id="Capa_2" data-name="Capa 2"><g id="Capa_1-2" data-name="Capa 1"><path class="cls-1" d="M0,3.57H12.22C21,3.57,27.06,8.87,27.06,17S21,30.47,12.22,30.47H0ZM11.92,25.36c5.34,0,8.84-3.19,8.84-8.34s-3.5-8.34-8.84-8.34H6.23V25.36Z"/><path class="cls-1" d="M41.6,2h6V30.47h-6Z"/><path class="cls-2" d="M61.44,28.55l2-4.3a14.18,14.18,0,0,0,7.19,2c2.77,0,3.8-.73,3.8-1.89,0-3.38-12.49.08-12.49-8.18,0-3.93,3.54-6.69,9.57-6.69a17,17,0,0,1,8,1.8l-2,4.27a11.91,11.91,0,0,0-6-1.54c-2.69,0-3.84.85-3.84,1.92,0,3.54,12.49.12,12.49,8.27,0,3.84-3.57,6.57-9.76,6.57A17.74,17.74,0,0,1,61.44,28.55Z"/><path class="cls-2" d="M81.67,20.57c-.24-6.22,4.4-10.82,11-11.08s11.5,4,11.74,10.21S100,30.52,93.45,30.77,81.91,26.79,81.67,20.57Zm16.63-.64c-.13-3.57-2.48-5.63-5.48-5.52s-5.22,2.35-5.08,5.93,2.53,5.63,5.52,5.52S98.44,23.5,98.3,19.93Z"/><path class="cls-2" d="M106.9,2h6V30.47h-6Z"/><path class="cls-2" d="M138.35,9.79l-8.73,20.68h-6.19L114.75,9.79h6.19l5.72,14.07,5.92-14.07Z"/><path class="cls-2" d="M158.89,21.83H143.25C143.83,24.4,146,26,149.17,26a7,7,0,0,0,5.19-2l3.19,3.46c-1.92,2.19-4.81,3.34-8.53,3.34-7.15,0-11.8-4.5-11.8-10.65s4.72-10.64,11-10.64c6.07,0,10.76,4.07,10.76,10.72C159,20.67,158.93,21.33,158.89,21.83Zm-15.72-3.5h10.19a5.17,5.17,0,0,0-10.19,0Z"/><path class="cls-2" d="M174.37,9.49V15c-.5,0-.89-.07-1.35-.07-3.3,0-5.49,1.8-5.49,5.76v9.76h-6V9.79h5.73v2.73C168.72,10.52,171.18,9.49,174.37,9.49Z"/><polygon class="cls-1" points="56.32 9.92 55.2 11.86 54.08 9.92 51.31 9.92 52.19 30.67 58.21 30.67 59.09 9.92 57.87 9.92 56.32 9.92"/><polygon class="cls-1" points="35.32 9.53 34.19 11.47 33.07 9.53 30.3 9.53 31.18 30.27 37.2 30.27 38.09 9.53 36.86 9.53 35.32 9.53"/><path class="cls-2" d="M55.2.31a3.44,3.44,0,0,0-3.74,3.36A3.43,3.43,0,0,0,55.2,7a3.45,3.45,0,0,0,3.74-3.47C58.94,1.7,57.44.31,55.2.31Z"/><path class="cls-1" d="M34.21,0a3.44,3.44,0,0,0-3.74,3.36,3.43,3.43,0,0,0,3.74,3.35A3.46,3.46,0,0,0,38,3.24C38,1.39,36.44,0,34.21,0Z"/></g></g></svg>